<svg width="539" height="451" viewBox="0 0 539 451" fill="none" xmlns="http://www.w3.org/2000/svg">
<path d="M186.447 213.057H24.956C11.1732 213.057 0 224.202 0 237.951V327.704C0 341.452 11.1732 352.598 24.956 352.598H186.447C200.23 352.598 211.403 341.452 211.403 327.704V237.951C211.403 224.202 200.23 213.057 186.447 213.057Z" fill="url(#paint0_linear_184_3602)"/>
<path d="M23.8717 237.828H21.7517C18.2682 237.828 15.4443 240.644 15.4443 244.119V315.204C15.4443 318.679 18.2682 321.496 21.7517 321.496H23.8717C27.3552 321.496 30.179 318.679 30.179 315.204V244.119C30.179 240.644 27.3552 237.828 23.8717 237.828Z" fill="url(#paint1_linear_184_3602)"/>
<path d="M48.8717 271.071H46.7517C43.2682 271.071 40.4443 273.887 40.4443 277.362V315.094C40.4443 318.569 43.2682 321.386 46.7517 321.386H48.8717C52.3552 321.386 55.179 318.569 55.179 315.094V277.362C55.179 273.887 52.3552 271.071 48.8717 271.071Z" fill="white"/>
<path d="M73.8761 254.293H71.756C68.2726 254.293 65.4487 257.11 65.4487 260.585V314.98C65.4487 318.455 68.2726 321.271 71.756 321.271H73.8761C77.3595 321.271 80.1834 318.455 80.1834 314.98V260.585C80.1834 257.11 77.3595 254.293 73.8761 254.293Z" fill="white"/>
<path d="M310.57 419.462H302.632V427.38H310.57V419.462Z" fill="url(#paint2_linear_184_3602)"/>
<path d="M500.552 256.72H492.614V264.638H500.552V256.72Z" fill="url(#paint3_linear_184_3602)"/>
<path d="M332.269 415.267H326.623V420.899H332.269V415.267Z" fill="#A594F9"/>
<path d="M539 22.9504H531.216V30.7149H539V22.9504Z" fill="#A594F9"/>
<path d="M76.155 386.377H68.3711V394.141H76.155V386.377Z" fill="#A594F9"/>
<path d="M329.501 79.7244H321.717V87.4888H329.501V79.7244Z" fill="#A594F9"/>
<path d="M421.85 138.578H136.592C111.914 138.578 91.9077 158.534 91.9077 183.151V359.289C91.9077 383.906 111.914 403.862 136.592 403.862H421.85C446.528 403.862 466.534 383.906 466.534 359.289V183.151C466.534 158.534 446.528 138.578 421.85 138.578Z" fill="#EDF2FB"/>
<path d="M127.605 174.705C131.001 174.705 133.754 171.959 133.754 168.572C133.754 165.184 131.001 162.438 127.605 162.438C124.209 162.438 121.457 165.184 121.457 168.572C121.457 171.959 124.209 174.705 127.605 174.705Z" fill="#FF8FAB"/>
<path d="M146.113 174.705C149.509 174.705 152.262 171.959 152.262 168.572C152.262 165.184 149.509 162.438 146.113 162.438C142.717 162.438 139.964 165.184 139.964 168.572C139.964 171.959 142.717 174.705 146.113 174.705Z" fill="#F9DC5C"/>
<path d="M164.616 174.705C168.012 174.705 170.765 171.959 170.765 168.572C170.765 165.184 168.012 162.438 164.616 162.438C161.22 162.438 158.468 165.184 158.468 168.572C158.468 171.959 161.22 174.705 164.616 174.705Z" fill="#80ED99"/>
<path d="M170.383 246.154C181.826 234.739 181.826 216.232 170.383 204.818C158.94 193.403 140.387 193.403 128.944 204.818C117.501 216.232 117.501 234.739 128.944 246.154C140.387 257.568 158.94 257.568 170.383 246.154Z" fill="url(#paint4_linear_184_3602)"/>
<path d="M179.492 266.639H119.835C116.322 266.639 113.475 269.479 113.475 272.983V273.805C113.475 277.309 116.322 280.15 119.835 280.15H179.492C183.005 280.15 185.852 277.309 185.852 273.805V272.983C185.852 269.479 183.005 266.639 179.492 266.639Z" fill="#FFC8DD"/>
<path d="M208.679 287.822H119.835C116.322 287.822 113.475 290.662 113.475 294.166V294.988C113.475 298.492 116.322 301.333 119.835 301.333H208.679C212.192 301.333 215.04 298.492 215.04 294.988V294.166C215.04 290.662 212.192 287.822 208.679 287.822Z" fill="#FFC8DD"/>
<path d="M139.092 347.458C139.65 346.609 139.876 345.584 139.725 344.579C139.575 343.575 139.06 342.66 138.278 342.01C137.495 341.36 136.501 341.02 135.483 341.054C134.465 341.089 133.496 341.495 132.759 342.196C132.023 342.898 131.571 343.845 131.489 344.857C131.407 345.87 131.702 346.877 132.316 347.686C132.931 348.496 133.823 349.052 134.822 349.248C135.821 349.445 136.857 349.267 137.734 348.751L139.497 349.072L139.092 347.458Z" fill="#CDC1FF"/>
<path d="M126.971 343.439C126.891 342.802 126.589 342.212 126.116 341.775C125.643 341.339 125.031 341.082 124.388 341.052C123.858 341.57 123.146 341.86 122.404 341.86C121.663 341.86 120.951 341.57 120.421 341.052C120.065 341.052 119.712 341.122 119.384 341.258C119.055 341.394 118.756 341.593 118.504 341.844C118.252 342.095 118.053 342.393 117.917 342.721C117.78 343.049 117.71 343.401 117.71 343.756C117.761 344.444 118.026 345.099 118.468 345.629C119.116 346.565 121.086 348.364 121.942 349.146C122.052 349.245 122.194 349.3 122.343 349.3C122.491 349.3 122.634 349.245 122.744 349.146C123.625 348.346 125.754 346.39 126.477 345.383C126.884 344.821 127.06 344.126 126.971 343.439Z" fill="#FE5D9F"/>
<path d="M159.15 218.295C160.381 213.145 157.194 207.976 152.032 206.748C146.87 205.521 141.688 208.7 140.457 213.849C139.226 218.998 142.413 224.167 147.575 225.395C152.737 226.623 157.919 223.444 159.15 218.295Z" fill="white"/>
<path d="M164.413 240.852C154.989 244.37 144.607 244.37 135.182 240.852C135.182 236.986 136.722 233.277 139.463 230.543C142.204 227.809 145.921 226.273 149.798 226.273C153.674 226.273 157.392 227.809 160.133 230.543C162.874 233.277 164.413 236.986 164.413 240.852Z" fill="white"/>
<path d="M416.12 203.406H249.419C239.891 203.406 232.167 211.111 232.167 220.615V351.314C232.167 360.818 239.891 368.522 249.419 368.522H416.12C425.648 368.522 433.371 360.818 433.371 351.314V220.615C433.371 211.111 425.648 203.406 416.12 203.406Z" fill="url(#paint5_linear_184_3602)"/>
<path d="M261.663 226.484H261.469C260.63 226.484 259.949 227.163 259.949 228.001V343.932C259.949 344.77 260.63 345.449 261.469 345.449H261.663C262.503 345.449 263.184 344.77 263.184 343.932V228.001C263.184 227.163 262.503 226.484 261.663 226.484Z" fill="#A594F9"/>
<path d="M291.728 226.484H291.534C290.694 226.484 290.013 227.163 290.013 228.001V343.932C290.013 344.77 290.694 345.449 291.534 345.449H291.728C292.568 345.449 293.248 344.77 293.248 343.932V228.001C293.248 227.163 292.568 226.484 291.728 226.484Z" fill="#A594F9"/>
<path d="M321.792 226.484H321.598C320.758 226.484 320.078 227.163 320.078 228.001V343.932C320.078 344.77 320.758 345.449 321.598 345.449H321.792C322.632 345.449 323.313 344.77 323.313 343.932V228.001C323.313 227.163 322.632 226.484 321.792 226.484Z" fill="#A594F9"/>
<path d="M351.857 226.484H351.663C350.823 226.484 350.142 227.163 350.142 228.001V343.932C350.142 344.77 350.823 345.449 351.663 345.449H351.857C352.696 345.449 353.377 344.77 353.377 343.932V228.001C353.377 227.163 352.696 226.484 351.857 226.484Z" fill="#A594F9"/>
<path d="M381.921 226.484H381.727C380.887 226.484 380.207 227.163 380.207 228.001V343.932C380.207 344.77 380.887 345.449 381.727 345.449H381.921C382.761 345.449 383.442 344.77 383.442 343.932V228.001C383.442 227.163 382.761 226.484 381.921 226.484Z" fill="#A594F9"/>
<path d="M411.986 226.484H411.792C410.952 226.484 410.271 227.163 410.271 228.001V343.932C410.271 344.77 410.952 345.449 411.792 345.449H411.986C412.825 345.449 413.506 344.77 413.506 343.932V228.001C413.506 227.163 412.825 226.484 411.986 226.484Z" fill="#A594F9"/>
<path d="M239.259 299.803C239.299 299.803 240.194 299.411 239.603 299.644L240.145 299.438C240.586 299.271 241.053 299.126 241.516 298.998C242.43 298.74 243.359 298.539 244.297 298.396C243.68 298.497 244.297 298.396 244.456 298.396L245.165 298.33C245.606 298.299 246.016 298.277 246.439 298.264C247.444 298.233 248.449 298.264 249.454 298.325C250.336 298.381 251.207 298.468 252.068 298.585C251.389 298.492 252.354 298.633 252.416 298.642L253.002 298.734C253.54 298.822 254.082 298.919 254.62 299.02C256.559 299.385 258.485 299.825 260.407 300.273C268.411 302.137 276.574 304.067 284.772 302.221C300.036 298.787 309.706 285.149 320.827 275.401C322.238 274.086 323.825 272.971 325.543 272.091C325.772 271.972 325.984 271.862 326.239 271.757C326.755 271.519 325.578 271.968 326.495 271.655C326.98 271.488 327.46 271.326 327.963 271.216C328.188 271.163 329.285 270.974 328.584 271.062C329.109 270.998 329.638 270.967 330.167 270.97C330.607 270.97 331.022 271.005 331.454 271.044C330.77 270.983 331.634 271.088 331.894 271.141C332.309 271.229 332.719 271.339 333.124 271.466C333.322 271.532 333.525 271.598 333.724 271.673C334.468 271.946 333.503 271.532 334.05 271.801C334.753 272.138 335.437 272.514 336.099 272.926C336.474 273.168 336.835 273.418 337.192 273.682C337.303 273.766 337.668 274.025 337.192 273.682C337.439 273.88 337.686 274.082 337.924 274.289C339.286 275.498 340.541 276.822 341.675 278.246C342.248 278.949 341.472 277.969 341.803 278.409C341.948 278.598 342.089 278.787 342.243 278.98C342.526 279.363 342.799 279.75 343.068 280.145C343.603 280.928 344.111 281.725 344.593 282.537C346.422 285.615 347.92 288.855 349.714 291.942C353.337 298.167 358.296 304.503 365.696 306.2C374.591 308.244 383.164 303.188 388.819 296.677C391.781 293.269 394.24 289.479 396.783 285.76C399.001 282.436 401.472 279.287 404.175 276.342C406.933 273.343 409.909 270.551 413.078 267.989C413.48 267.663 413.885 267.342 414.291 267.026L414.401 266.942L415.018 266.472C415.899 265.825 416.781 265.192 417.662 264.581C419.32 263.438 421.02 262.358 422.762 261.341C424.504 260.324 426.279 259.374 428.086 258.492C429.541 257.775 430.057 255.603 429.197 254.271C428.769 253.58 428.091 253.08 427.303 252.874C426.516 252.667 425.679 252.771 424.966 253.163C417.49 256.851 410.594 261.605 404.492 267.276C401.465 270.087 398.654 273.12 396.083 276.351C393.35 279.789 390.957 283.447 388.458 287.048C386.064 290.508 383.684 293.643 380.233 296.452C379.752 296.839 380.017 296.62 380.127 296.54C379.92 296.694 379.708 296.844 379.497 296.98C379.118 297.248 378.73 297.503 378.338 297.749C377.381 298.351 376.383 298.883 375.349 299.341C375.79 299.148 374.838 299.535 374.67 299.592C374.194 299.759 373.71 299.913 373.225 300.031C372.74 300.15 372.246 300.264 371.757 300.361C371.149 300.484 371.55 300.405 371.691 300.387C371.391 300.427 371.091 300.453 370.809 300.471C370.311 300.506 369.81 300.515 369.311 300.497C369.064 300.497 368.813 300.497 368.561 300.453C368.42 300.453 367.777 300.348 368.337 300.453C367.458 300.312 366.593 300.093 365.754 299.798C365.555 299.732 365.357 299.649 365.163 299.578C364.696 299.407 365.807 299.908 365.093 299.543C364.762 299.372 364.423 299.214 364.092 299.029C363.762 298.844 363.444 298.655 363.131 298.453L362.514 298.035C362.386 297.943 361.791 297.477 362.338 297.917C361.01 296.839 359.798 295.628 358.719 294.302C358.587 294.144 358.018 293.423 358.389 293.894C358.12 293.542 357.86 293.186 357.604 292.825C357.084 292.091 356.595 291.344 356.119 290.583C354.21 287.505 352.645 284.283 350.913 281.13C349.076 277.691 346.793 274.508 344.121 271.664C341.477 268.907 338.237 266.551 334.535 265.456C330.409 264.234 326.085 264.889 322.308 266.859C318.641 268.776 315.595 271.787 312.651 274.641C309.931 277.279 307.278 279.983 304.549 282.607C303.227 283.9 301.848 285.175 300.45 286.406C299.741 287.035 299.027 287.65 298.295 288.253L297.312 289.049L296.761 289.488C297.202 289.158 296.616 289.594 296.497 289.682C295.03 290.793 293.501 291.821 291.917 292.759C291.216 293.173 290.502 293.568 289.771 293.938C289.37 294.14 288.964 294.338 288.554 294.527L288.061 294.747C287.73 294.892 287.734 294.887 288.061 294.747L287.686 294.896C286.047 295.555 284.352 296.066 282.621 296.422C282.181 296.514 281.74 296.593 281.264 296.668C280.66 296.765 281.136 296.668 281.264 296.668C280.982 296.703 280.695 296.734 280.413 296.76C279.426 296.853 278.434 296.888 277.443 296.883C276.451 296.879 275.547 296.826 274.604 296.747C274.163 296.707 273.722 296.663 273.255 296.611C273.313 296.611 272.33 296.496 272.771 296.554L272.581 296.527L271.982 296.435C270.016 296.131 268.068 295.727 266.128 295.292C258.221 293.533 250.142 291.133 241.988 292.61C239.976 292.999 238.023 293.642 236.174 294.522C234.697 295.199 234.221 297.437 235.063 298.743C236.042 300.26 237.708 300.572 239.295 299.851L239.259 299.803Z" fill="url(#paint6_linear_184_3602)"/>
<path opacity="0.5" d="M489.582 290.64H443.487C430.916 290.64 420.726 300.805 420.726 313.344V316.29C420.726 328.829 430.916 338.994 443.487 338.994H489.582C502.152 338.994 512.343 328.829 512.343 316.29V313.344C512.343 300.805 502.152 290.64 489.582 290.64Z" fill="url(#paint7_linear_184_3602)"/>
<path d="M450.693 303.865L453.183 308.904C453.336 309.211 453.562 309.477 453.84 309.679C454.119 309.88 454.443 310.011 454.783 310.06L460.354 310.869C460.642 310.908 460.913 311.028 461.135 311.214C461.358 311.4 461.523 311.645 461.613 311.92C461.702 312.196 461.711 312.491 461.64 312.771C461.569 313.052 461.42 313.307 461.21 313.507L457.181 317.429C456.934 317.668 456.748 317.963 456.642 318.289C456.535 318.616 456.51 318.963 456.568 319.302L457.52 324.837C457.569 325.121 457.537 325.412 457.428 325.679C457.32 325.945 457.138 326.176 456.905 326.346C456.672 326.515 456.396 326.615 456.108 326.636C455.82 326.657 455.532 326.598 455.277 326.464L450.292 323.848C449.988 323.688 449.649 323.604 449.305 323.604C448.961 323.604 448.622 323.688 448.317 323.848L443.337 326.464C443.081 326.598 442.793 326.657 442.506 326.636C442.218 326.615 441.942 326.515 441.708 326.346C441.475 326.176 441.294 325.945 441.185 325.679C441.076 325.412 441.045 325.121 441.093 324.837L442.045 319.302C442.103 318.963 442.077 318.616 441.97 318.29C441.864 317.964 441.679 317.668 441.433 317.429L437.4 313.507C437.191 313.305 437.043 313.048 436.974 312.765C436.905 312.483 436.917 312.187 437.01 311.912C437.102 311.636 437.27 311.392 437.495 311.208C437.72 311.023 437.992 310.906 438.281 310.869L443.852 310.06C444.192 310.011 444.515 309.88 444.793 309.679C445.071 309.477 445.296 309.211 445.448 308.904L447.943 303.865C448.073 303.613 448.27 303.402 448.513 303.254C448.755 303.107 449.034 303.029 449.318 303.029C449.602 303.029 449.881 303.107 450.123 303.254C450.366 303.402 450.563 303.613 450.693 303.865Z" fill="white"/>
<path d="M485.619 303.865L488.109 308.904C488.262 309.211 488.487 309.476 488.764 309.678C489.042 309.879 489.365 310.01 489.705 310.06L495.281 310.869C495.568 310.908 495.839 311.028 496.061 311.214C496.284 311.4 496.449 311.645 496.539 311.92C496.628 312.196 496.638 312.491 496.566 312.771C496.495 313.052 496.346 313.307 496.136 313.507L492.103 317.429C491.857 317.668 491.673 317.964 491.567 318.29C491.461 318.617 491.436 318.964 491.494 319.302L492.446 324.837C492.495 325.121 492.463 325.412 492.354 325.679C492.246 325.945 492.065 326.176 491.831 326.346C491.598 326.515 491.322 326.615 491.034 326.636C490.746 326.657 490.458 326.598 490.203 326.464L485.218 323.848C484.914 323.688 484.575 323.604 484.231 323.604C483.887 323.604 483.548 323.688 483.243 323.848L478.258 326.464C478.003 326.598 477.715 326.657 477.427 326.636C477.14 326.615 476.863 326.515 476.63 326.346C476.397 326.176 476.216 325.945 476.107 325.679C475.998 325.412 475.966 325.121 476.015 324.837L476.967 319.302C477.025 318.964 477.001 318.617 476.895 318.29C476.789 317.964 476.605 317.668 476.359 317.429L472.326 313.507C472.117 313.306 471.97 313.051 471.899 312.771C471.829 312.491 471.839 312.197 471.928 311.922C472.017 311.647 472.182 311.403 472.403 311.217C472.625 311.03 472.894 310.91 473.181 310.869L478.756 310.06C479.096 310.011 479.42 309.88 479.698 309.679C479.976 309.477 480.2 309.211 480.352 308.904L482.847 303.865C482.975 303.608 483.172 303.391 483.417 303.239C483.662 303.088 483.945 303.007 484.233 303.007C484.521 303.007 484.804 303.088 485.049 303.239C485.293 303.391 485.491 303.608 485.619 303.865Z" fill="white"/>
<path d="M467.164 58.77H386.448C383.741 58.77 381.146 57.6976 379.233 55.7888C377.319 53.88 376.244 51.2911 376.244 48.5917V39.3324L365.37 30.6578C365.179 30.5054 365.025 30.3121 364.919 30.0921C364.813 29.8722 364.758 29.6312 364.758 29.3872C364.758 29.1431 364.813 28.9022 364.919 28.6822C365.025 28.4623 365.179 28.2689 365.37 28.1165L376.244 19.4376V10.1826C376.243 8.84565 376.507 7.52164 377.019 6.28626C377.532 5.05087 378.283 3.92831 379.231 2.98271C380.179 2.03711 381.304 1.28699 382.542 0.775209C383.78 0.26343 385.107 -1.24738e-07 386.448 0H467.182C469.889 0.00116573 472.484 1.07448 474.397 2.98397C476.311 4.89346 477.386 7.4828 477.386 10.1826V48.5917C477.385 49.9297 477.12 51.2544 476.606 52.4901C476.092 53.7259 475.339 54.8485 474.39 55.7937C473.44 56.739 472.314 57.4884 471.074 57.999C469.834 58.5097 468.506 58.7717 467.164 58.77Z" fill="url(#paint8_linear_184_3602)"/>
<path d="M375.477 38.5849L365.353 30.5566L365.26 30.6314L375.477 38.7344V38.5849Z" fill="#FE5D9F"/>
<path d="M473.996 2.62036C475.688 4.48837 476.623 6.91755 476.619 9.43516V48.3498C476.619 50.9152 475.597 53.3754 473.779 55.1894C471.96 57.0034 469.494 58.0225 466.922 58.0225H385.681C383.154 58.02 380.719 57.0796 378.849 55.3845C379.805 56.4446 380.974 57.2919 382.28 57.8714C383.587 58.4509 385 58.7496 386.43 58.7479H467.164C469.87 58.7467 472.465 57.674 474.378 55.7655C476.292 53.8569 477.367 51.2688 477.368 48.5697V10.1826C477.369 8.75669 477.07 7.34649 476.489 6.04365C475.908 4.7408 475.059 3.57445 473.996 2.62036Z" fill="#FE5D9F"/>
<path d="M414.379 26.1776C414.171 24.5067 413.377 22.9633 412.136 21.8212C410.896 20.6791 409.291 20.0122 407.604 19.9387C406.215 21.3014 404.345 22.0651 402.397 22.0651C400.448 22.0651 398.578 21.3014 397.189 19.9387C395.307 19.9387 393.502 20.6845 392.171 22.012C390.84 23.3395 390.093 25.1399 390.093 27.0173C390.093 28.9211 391.071 30.4687 392.076 31.9196C393.769 34.3685 398.939 39.0729 401.174 41.0646C401.461 41.3226 401.834 41.4653 402.22 41.4653C402.607 41.4653 402.98 41.3226 403.267 41.0646C405.594 38.963 411.152 33.8453 413.034 31.2117C414.102 29.7622 414.582 27.9646 414.379 26.1776Z" fill="white"/>
<path d="M435.333 33.9991V36.8174H423.996V34.5751L429.783 29.1232C431.106 27.8614 431.344 27.092 431.344 26.3666C431.344 25.1927 430.533 24.5068 428.946 24.5068C428.344 24.4827 427.746 24.6069 427.204 24.8684C426.662 25.1299 426.193 25.5206 425.839 26.006L423.309 24.3793C424.468 22.691 426.566 21.6006 429.268 21.6006C432.609 21.6006 434.839 23.3109 434.839 26.0236C434.839 27.4789 434.429 28.8023 432.331 30.75L428.88 33.9991H435.333Z" fill="white"/>
<path d="M447.846 32.245C447.846 34.7687 445.893 37.0813 441.631 37.0813C439.529 37.0813 437.364 36.5009 435.901 35.4765L437.25 32.8385C438.499 33.7279 439.999 34.2004 441.534 34.1883C443.271 34.1883 444.342 33.4804 444.342 32.2626C444.342 31.1282 443.509 30.4248 441.534 30.4248H439.952V28.1385L443.037 24.652H436.65V21.8733H447.149V24.12L443.764 27.967C446.475 28.3759 447.846 30.0423 447.846 32.245Z" fill="white"/>
<path d="M461.818 32.0954C461.818 35.1511 459.31 37.0768 456.141 37.0768C452.007 37.0768 449.433 34.4872 449.433 29.6597C449.433 24.4849 452.562 21.6006 457.084 21.6006C458.544 21.5619 459.987 21.9158 461.263 22.6251L459.976 25.1707C459.136 24.6472 458.158 24.3869 457.168 24.4233C454.66 24.4233 453.056 25.8962 452.95 28.7628C453.831 27.8835 455.092 27.4438 456.657 27.4438C459.566 27.435 461.818 29.2728 461.818 32.0954ZM458.455 32.2669C458.455 30.8996 457.446 30.0202 455.903 30.0202C454.36 30.0202 453.311 30.9611 453.311 32.2669C453.311 33.5727 454.277 34.4652 455.956 34.4652C457.446 34.4872 458.473 33.6343 458.473 32.2669H458.455Z" fill="white"/>
<path d="M243.543 330H160.909C150.466 330 142 338.445 142 348.862V431.29C142 441.707 150.466 450.151 160.909 450.151H243.543C253.986 450.151 262.452 441.707 262.452 431.29V348.862C262.452 338.445 253.986 330 243.543 330Z" fill="#F4F7FD"/>
<path d="M249.987 400.232V353.513C249.987 347.394 245.014 342.434 238.88 342.434H165.572C159.438 342.434 154.465 347.394 154.465 353.513V400.232C154.465 406.351 159.438 411.311 165.572 411.311H238.88C245.014 411.311 249.987 406.351 249.987 400.232Z" fill="url(#paint9_linear_184_3602)"/>
<g opacity="0.2">
<path d="M175.542 399.964C173.465 398.175 171.255 396.547 168.931 395.092C166.609 393.672 164.17 392.453 161.64 391.447C159.415 390.536 157.105 389.848 154.743 389.394L154.456 389.346V396.908C156.234 397.336 157.979 397.895 159.675 398.579C162.905 399.999 165.956 401.795 168.763 403.93C171.343 405.963 173.72 408.24 175.864 410.727C176.027 410.916 176.19 411.114 176.349 411.307H185.605C182.745 407.117 179.364 403.305 175.542 399.964Z" fill="white"/>
<path d="M154.461 356.811V364.237C156.891 363.935 159.299 363.471 161.667 362.847C162.9 362.508 164.11 362.092 165.29 361.603C166.722 361.036 168.106 360.355 169.429 359.568C171.77 358.125 173.839 356.284 175.542 354.129C176.495 352.945 177.354 351.69 178.112 350.374C178.846 349.034 179.49 347.646 180.038 346.219C180.519 344.986 180.916 343.721 181.224 342.434H173.519C173.299 343.124 173.056 343.806 172.783 344.478C172.034 346.167 171.103 347.769 170.006 349.257C169.108 350.364 168.1 351.376 166.996 352.278C165.717 353.204 164.343 353.992 162.897 354.63C160.175 355.668 157.345 356.4 154.461 356.811Z" fill="white"/>
<path d="M193.34 343.48C195.729 347.745 199.145 351.504 202.883 354.634C206.522 357.679 210.518 360.273 214.783 362.359C224.163 366.949 234.296 369.214 244.596 370.563C246.395 370.795 248.195 371.003 249.996 371.188V363.779C248.162 363.59 246.329 363.384 244.5 363.146C236.658 362.056 228.87 360.346 221.531 357.338C217.185 355.492 213.077 353.13 209.296 350.304C206.592 348.193 204.14 345.779 201.988 343.111C201.816 342.882 201.644 342.649 201.481 342.412H192.802C192.966 342.785 193.146 343.133 193.34 343.48Z" fill="white"/>
<path d="M233.979 349.631C236.424 350.69 238.943 351.571 241.516 352.269C244.212 352.954 246.953 353.449 249.718 353.751L249.983 353.777V353.707C249.987 350.778 248.841 347.964 246.792 345.868C243.524 345.24 240.326 344.293 237.245 343.04C236.804 342.851 236.363 342.654 235.922 342.447H222.263C225.782 345.418 229.732 347.84 233.979 349.631Z" fill="white"/>
<path d="M247.642 406.932C240.616 405.821 233.5 405.366 226.389 405.574C219.011 405.793 211.695 406.989 204.633 409.131C203.866 409.368 203.094 409.623 202.332 409.896C201.891 409.399 201.45 408.906 201.01 408.432C197.483 404.677 193.856 401.041 190.273 397.352C188.774 395.809 187.258 394.274 185.909 392.591C185.244 391.705 184.664 390.758 184.177 389.763C183.973 389.222 183.813 388.665 183.701 388.097C183.674 387.706 183.674 387.314 183.701 386.923C183.794 386.449 183.924 385.984 184.089 385.529C184.366 384.953 184.689 384.398 185.054 383.872C185.381 383.498 185.734 383.149 186.112 382.826C186.513 382.549 186.935 382.302 187.372 382.087C187.759 381.95 188.156 381.842 188.558 381.762C188.884 381.742 189.211 381.742 189.537 381.762C190.018 381.859 190.491 381.995 190.951 382.166C192.154 382.78 193.311 383.481 194.411 384.263C195.64 385.09 196.89 385.886 198.162 386.651C200.763 388.216 203.431 389.655 206.167 390.968C211.851 393.713 217.747 395.999 223.797 397.805C230.097 399.662 236.544 400.986 243.067 401.762C245.271 402.035 247.506 402.263 249.732 402.465C249.902 401.682 249.987 400.884 249.987 400.082V395.061C247.307 394.824 244.632 394.551 241.961 394.182C234.496 393.126 227.157 391.316 220.059 388.779C218.208 388.124 216.375 387.411 214.559 386.659C209.746 384.628 205.1 382.226 200.661 379.475C198.202 377.941 195.932 376.191 193.217 375.114C190.132 373.887 186.83 374.204 183.86 375.554C181.267 376.803 179.155 378.862 177.843 381.419C176.373 384.139 175.929 387.294 176.591 390.313C177.186 392.644 178.278 394.82 179.791 396.693C181.401 398.729 183.129 400.669 184.966 402.505C187.317 404.917 189.667 407.334 192.018 409.755C192.518 410.271 193.019 410.784 193.521 411.294H238.712C240.436 411.297 242.138 410.906 243.686 410.149C245.234 409.393 246.588 408.293 247.642 406.932Z" fill="white"/>
<path d="M187.835 364.672C187.906 364.65 188.13 364.606 188.32 364.562C188.509 364.518 188.668 364.536 188.761 364.536C188.959 364.536 189.201 364.584 189.409 364.593L189.642 364.637C189.946 364.716 190.25 364.808 190.55 364.914L190.691 364.962C191.017 365.125 191.339 365.283 191.652 365.459C192.342 365.862 193.01 366.303 193.653 366.778C194.9 367.657 196.143 368.58 197.382 369.482C199.828 371.267 202.283 373.043 204.826 374.683C210.362 378.257 216.392 380.777 222.58 382.988C231.476 386.141 240.647 388.46 249.974 389.917V382.443C249.128 382.302 248.283 382.156 247.439 382.003C240.986 380.815 234.619 379.199 228.381 377.167C225.304 376.162 222.262 375.057 219.253 373.852C218.852 373.694 218.45 373.531 218.054 373.364L217.454 373.118L217.327 373.065L217.031 372.933L216.59 372.744C216.167 372.551 215.749 372.353 215.334 372.151C213.972 371.491 212.646 370.774 211.341 370.014C208.736 368.493 206.241 366.791 203.791 365.037C201.34 363.282 198.92 361.352 196.373 359.695C193.975 358.134 191.004 356.929 188.091 357.18C184.847 357.461 182.105 359.031 179.809 361.282C177.856 363.199 176.089 365.239 173.977 366.998C173.744 367.196 173.506 367.389 173.268 367.578L172.959 367.824C172.655 368.066 172.73 368.013 172.854 367.917C172.386 368.29 171.875 368.629 171.39 368.967C170.315 369.719 169.186 370.427 168.071 371.095C166.956 371.764 165.779 372.379 164.594 372.955C164.003 373.245 163.408 373.522 162.804 373.786L162.443 373.944C161.901 374.177 162.372 373.984 162.549 373.9C162.248 374.042 161.938 374.165 161.623 374.27C159.285 375.175 156.884 375.91 154.438 376.468V383.978C158.822 383.121 163.089 381.75 167.15 379.893C172.229 377.567 176.905 374.45 181.003 370.66C181.97 369.781 182.897 368.85 183.784 367.868C184.225 367.376 184.666 366.879 185.16 366.413C185.393 366.184 185.644 365.973 185.887 365.753L185.83 365.78C185.855 365.768 185.881 365.755 185.905 365.74L185.971 365.679C186.021 365.633 186.077 365.594 186.138 365.564L186.235 365.49C186.499 365.309 186.773 365.143 187.055 364.993L187.271 364.878C187.13 364.962 187.698 364.725 187.835 364.672Z" fill="white"/>
<path d="M185.909 365.74C186.222 365.626 186.262 365.512 186.16 365.551C186.087 365.616 186.009 365.675 185.927 365.727L185.909 365.74Z" fill="white"/>
</g>
<path d="M187.368 417.972H164.572C162.072 417.972 160.045 419.994 160.045 422.488V423.072C160.045 425.566 162.072 427.588 164.572 427.588H187.368C189.868 427.588 191.894 425.566 191.894 423.072V422.488C191.894 419.994 189.868 417.972 187.368 417.972Z" fill="#FFAFCC"/>
<path d="M238.236 430.626H164.572C162.072 430.626 160.045 432.647 160.045 435.141V435.726C160.045 438.22 162.072 440.241 164.572 440.241H238.236C240.736 440.241 242.763 438.22 242.763 435.726V435.141C242.763 432.647 240.736 430.626 238.236 430.626Z" fill="#FFAFCC"/>
<path d="M211.164 379.374L195.919 388.167C195.517 388.399 195.061 388.521 194.597 388.521C194.133 388.521 193.677 388.399 193.275 388.168C192.873 387.937 192.539 387.604 192.307 387.204C192.075 386.803 191.952 386.348 191.952 385.886V368.325C191.952 367.863 192.075 367.408 192.307 367.007C192.539 366.607 192.873 366.274 193.275 366.043C193.677 365.812 194.133 365.69 194.597 365.69C195.061 365.69 195.517 365.812 195.919 366.044L211.164 374.837C211.565 375.069 211.898 375.402 212.129 375.802C212.36 376.203 212.482 376.657 212.482 377.119C212.482 377.581 212.36 378.035 212.129 378.435C211.898 378.836 211.565 379.169 211.164 379.401L195.919 388.194C195.517 388.425 195.061 388.547 194.597 388.547C194.133 388.547 193.677 388.426 193.275 388.195C192.873 387.963 192.539 387.631 192.307 387.23C192.075 386.829 191.952 386.375 191.952 385.912V368.352C191.952 367.889 192.075 367.434 192.307 367.034C192.539 366.633 192.873 366.301 193.275 366.069C193.677 365.838 194.133 365.716 194.597 365.717C195.061 365.717 195.517 365.839 195.919 366.07L211.164 374.863C211.553 375.098 211.874 375.43 212.097 375.825C212.32 376.22 212.438 376.665 212.438 377.119C212.438 377.572 212.32 378.018 212.097 378.413C211.874 378.808 211.553 379.139 211.164 379.374Z" fill="white"/>
<path d="M233.423 367.485L218.177 358.691C217.737 358.439 217.233 358.318 216.726 358.344C216.218 358.37 215.729 358.541 215.317 358.836C215.665 358.725 216.032 358.688 216.395 358.729C216.758 358.769 217.109 358.885 217.424 359.069L232.67 367.863C233.246 368.189 233.676 368.722 233.873 369.353C234.217 370.461 234.993 370.004 234.591 368.874C234.382 368.286 233.967 367.793 233.423 367.485Z" fill="white"/>
<path d="M322.978 178.926C322.265 178.926 321.581 179.208 321.076 179.711C320.572 180.214 320.289 180.897 320.289 181.608V188.963C320.29 189.141 320.242 189.314 320.149 189.466C320.056 189.617 319.923 189.739 319.765 189.818C319.606 189.898 319.428 189.932 319.251 189.916C319.075 189.9 318.906 189.835 318.764 189.728L309.455 182.782C306.099 180.28 302.022 178.927 297.832 178.926H228.734C226.136 178.926 223.645 177.897 221.809 176.064C219.972 174.232 218.94 171.747 218.94 169.156V125.291C218.94 122.7 219.972 120.215 221.809 118.383C223.645 116.551 226.136 115.522 228.734 115.522H322.978C325.575 115.522 328.066 116.551 329.903 118.383C331.74 120.215 332.771 122.7 332.771 125.291V169.156C332.771 171.747 331.74 174.232 329.903 176.064C328.066 177.897 325.575 178.926 322.978 178.926Z" fill="url(#paint10_linear_184_3602)"/>
<path d="M313.409 139.598H307.925C307.765 139.599 307.606 139.562 307.461 139.491C307.317 139.42 307.191 139.316 307.094 139.188C306.997 139.06 306.931 138.911 306.902 138.753C306.872 138.596 306.88 138.433 306.925 138.279C307.295 136.903 307.806 134.762 307.806 133.341C307.806 132.862 307.714 131.341 307.621 130.497C307.57 129.99 307.322 129.523 306.932 129.194C306.541 128.866 306.037 128.702 305.528 128.738C305.076 128.78 304.652 128.974 304.324 129.286C303.996 129.599 303.783 130.013 303.721 130.462C303.474 132.137 303.002 134.559 302.301 135.522C301.662 136.401 299.547 139.558 299.547 139.558L299.035 140.262C298.949 140.381 298.836 140.478 298.705 140.544C298.574 140.611 298.429 140.645 298.282 140.644H297.581C297.44 140.645 297.305 140.702 297.206 140.802C297.107 140.901 297.052 141.036 297.052 141.176V154.713C297.052 154.854 297.107 154.988 297.206 155.088C297.305 155.188 297.44 155.244 297.581 155.245H298.427C298.618 155.244 298.804 155.3 298.962 155.407C299.119 155.514 299.24 155.666 299.309 155.843C299.383 156.039 299.515 156.207 299.687 156.326C299.86 156.444 300.064 156.507 300.274 156.507H310.967C311.594 156.507 312.202 156.292 312.69 155.898C313.178 155.505 313.515 154.956 313.647 154.344L316.088 142.891C316.173 142.493 316.168 142.081 316.072 141.686C315.977 141.291 315.794 140.921 315.537 140.606C315.28 140.29 314.956 140.036 314.587 139.861C314.219 139.687 313.816 139.597 313.409 139.598Z" fill="white"/>
<path d="M294.416 140.262H291.468C290.869 140.262 290.383 140.746 290.383 141.343V154.836C290.383 155.434 290.869 155.918 291.468 155.918H294.416C295.015 155.918 295.501 155.434 295.501 154.836V141.343C295.501 140.746 295.015 140.262 294.416 140.262Z" fill="white"/>
<path d="M247.695 151.926H245.315V155.004H242.018V151.926H234.146V149.657L241.035 140.424H244.588L238.197 149.191H242.124V146.461H245.315V149.191H247.695V151.926Z" fill="white"/>
<path d="M261.143 150.757C261.143 153.504 258.679 155.232 254.972 155.232C251.265 155.232 248.832 153.504 248.832 150.757C248.823 150.031 249.026 149.319 249.418 148.708C249.81 148.097 250.372 147.614 251.036 147.318C250.51 147.017 250.074 146.579 249.776 146.051C249.479 145.524 249.329 144.925 249.344 144.32C249.344 141.757 251.64 140.156 254.963 140.156C258.287 140.156 260.618 141.757 260.618 144.32C260.629 144.927 260.476 145.525 260.176 146.053C259.875 146.581 259.437 147.018 258.908 147.318C259.579 147.608 260.149 148.089 260.547 148.7C260.944 149.312 261.152 150.028 261.143 150.757ZM257.718 150.651C257.718 149.358 256.651 148.567 254.963 148.567C253.275 148.567 252.248 149.358 252.248 150.651C252.248 151.944 253.293 152.757 254.963 152.757C256.634 152.757 257.718 151.948 257.718 150.655V150.651ZM252.707 144.465C252.707 145.569 253.588 146.259 254.963 146.259C256.339 146.259 257.26 145.569 257.26 144.465C257.26 143.361 256.339 142.632 254.963 142.632C253.588 142.632 252.707 143.326 252.707 144.469V144.465Z" fill="white"/>
<path d="M273.48 150.532C273.48 152.99 271.58 155.237 267.424 155.237C265.453 155.273 263.516 154.73 261.853 153.676L263.175 151.095C264.393 151.962 265.853 152.423 267.349 152.414C269.041 152.414 270.086 151.728 270.086 150.541C270.086 149.438 269.271 148.747 267.349 148.747H265.806V146.518L268.812 143.124H262.593V140.42H272.827V142.618L269.526 146.369C272.144 146.76 273.48 148.387 273.48 150.532Z" fill="white"/>
<path d="M430.705 162.803L427.377 166.123L424.045 162.803C423.978 162.737 423.899 162.684 423.812 162.648C423.725 162.611 423.632 162.593 423.538 162.593C423.444 162.593 423.35 162.611 423.263 162.648C423.176 162.684 423.097 162.737 423.031 162.803L421.59 164.237C421.456 164.372 421.382 164.555 421.382 164.744C421.382 164.934 421.456 165.117 421.59 165.252L424.918 168.572L421.59 171.891C421.456 172.027 421.382 172.209 421.382 172.399C421.382 172.589 421.456 172.771 421.59 172.907L423.031 174.34C423.097 174.407 423.176 174.46 423.263 174.496C423.35 174.532 423.444 174.551 423.538 174.551C423.632 174.551 423.725 174.532 423.812 174.496C423.899 174.46 423.978 174.407 424.045 174.34L427.377 171.021L430.705 174.34C430.771 174.407 430.85 174.46 430.937 174.496C431.024 174.532 431.117 174.551 431.212 174.551C431.306 174.551 431.399 174.532 431.486 174.496C431.573 174.46 431.652 174.407 431.718 174.34L433.16 172.907C433.227 172.84 433.28 172.761 433.316 172.674C433.353 172.587 433.371 172.493 433.371 172.399C433.371 172.305 433.353 172.211 433.316 172.124C433.28 172.037 433.227 171.958 433.16 171.891L429.832 168.572L433.169 165.265C433.236 165.199 433.289 165.12 433.325 165.033C433.361 164.945 433.38 164.852 433.38 164.758C433.38 164.663 433.361 164.57 433.325 164.483C433.289 164.396 433.236 164.316 433.169 164.25L431.727 162.817C431.662 162.748 431.583 162.693 431.495 162.654C431.408 162.616 431.314 162.596 431.219 162.595C431.124 162.594 431.029 162.611 430.941 162.647C430.852 162.683 430.772 162.736 430.705 162.803Z" fill="#BDE0FE"/>
<path d="M424.794 168.466L424.9 168.361L421.572 165.041C421.465 164.93 421.396 164.789 421.374 164.637C421.355 164.748 421.364 164.861 421.398 164.968C421.433 165.075 421.492 165.173 421.572 165.252L424.794 168.466Z" fill="#BDE0FE"/>
<path d="M433.169 165.041L429.841 168.361L429.947 168.466L433.169 165.265C433.248 165.186 433.308 165.089 433.342 164.981C433.377 164.874 433.385 164.761 433.367 164.65C433.344 164.798 433.275 164.935 433.169 165.041Z" fill="#BDE0FE"/>
<path d="M433.168 172.696L431.727 174.129C431.661 174.196 431.582 174.249 431.495 174.285C431.408 174.321 431.315 174.34 431.22 174.34C431.126 174.34 431.033 174.321 430.946 174.285C430.859 174.249 430.78 174.196 430.713 174.129L427.386 170.81L424.053 174.129C423.987 174.196 423.908 174.249 423.821 174.285C423.734 174.321 423.641 174.34 423.547 174.34C423.452 174.34 423.359 174.321 423.272 174.285C423.185 174.249 423.106 174.196 423.04 174.129L421.598 172.696C421.491 172.585 421.422 172.443 421.4 172.291C421.382 172.402 421.39 172.516 421.425 172.623C421.459 172.73 421.519 172.827 421.598 172.907L423.04 174.34C423.106 174.407 423.185 174.46 423.272 174.496C423.359 174.532 423.452 174.551 423.547 174.551C423.641 174.551 423.734 174.532 423.821 174.496C423.908 174.46 423.987 174.407 424.053 174.34L427.386 171.021L430.713 174.34C430.78 174.407 430.859 174.46 430.946 174.496C431.033 174.532 431.126 174.551 431.22 174.551C431.315 174.551 431.408 174.532 431.495 174.496C431.582 174.46 431.661 174.407 431.727 174.34L433.168 172.907C433.248 172.827 433.308 172.73 433.342 172.623C433.377 172.516 433.385 172.402 433.367 172.291C433.347 172.444 433.277 172.586 433.168 172.696Z" fill="#BDE0FE"/>
<path d="M421.59 172.102L424.917 168.783L424.812 168.677L421.59 171.891C421.51 171.971 421.45 172.068 421.416 172.175C421.381 172.282 421.373 172.396 421.391 172.507C421.413 172.354 421.483 172.213 421.59 172.102Z" fill="#BDE0FE"/>
<path d="M421.59 164.448L423.031 163.014C423.097 162.948 423.176 162.895 423.263 162.859C423.35 162.822 423.443 162.804 423.538 162.804C423.632 162.804 423.725 162.822 423.812 162.859C423.899 162.895 423.978 162.948 424.045 163.014L427.377 166.334L430.705 163.014C430.771 162.948 430.85 162.895 430.937 162.859C431.024 162.822 431.117 162.804 431.211 162.804C431.306 162.804 431.399 162.822 431.486 162.859C431.573 162.895 431.652 162.948 431.718 163.014L433.16 164.448C433.268 164.557 433.338 164.699 433.358 164.852C433.376 164.741 433.368 164.628 433.333 164.521C433.299 164.414 433.239 164.316 433.16 164.237L431.718 162.803C431.652 162.737 431.573 162.684 431.486 162.648C431.399 162.611 431.306 162.593 431.211 162.593C431.117 162.593 431.024 162.611 430.937 162.648C430.85 162.684 430.771 162.737 430.705 162.803L427.377 166.123L424.045 162.803C423.978 162.737 423.899 162.684 423.812 162.648C423.725 162.611 423.632 162.593 423.538 162.593C423.443 162.593 423.35 162.611 423.263 162.648C423.176 162.684 423.097 162.737 423.031 162.803L421.59 164.237C421.51 164.316 421.45 164.414 421.416 164.521C421.381 164.628 421.373 164.741 421.391 164.852C421.413 164.7 421.483 164.558 421.59 164.448Z" fill="#BDE0FE"/>
<path d="M429.938 168.677L429.832 168.783L433.16 172.102C433.269 172.212 433.338 172.354 433.358 172.507C433.376 172.396 433.368 172.282 433.334 172.175C433.299 172.068 433.24 171.971 433.16 171.891L429.938 168.677Z" fill="#BDE0FE"/>
<path d="M456.89 99.5267H385.875C367.199 99.5267 352.059 114.629 352.059 133.258V204.096C352.059 222.726 367.199 237.828 385.875 237.828H456.89C475.566 237.828 490.706 222.726 490.706 204.096V133.258C490.706 114.629 475.566 99.5267 456.89 99.5267Z" fill="#F4F7FD"/>
<path d="M378.151 116.31C378.502 114.151 377.032 112.116 374.867 111.765C372.702 111.415 370.663 112.881 370.311 115.041C369.96 117.2 371.43 119.235 373.595 119.586C375.76 119.936 377.8 118.47 378.151 116.31Z" fill="#FF8FAB"/>
<path d="M390.527 116.311C390.878 114.152 389.408 112.117 387.243 111.766C385.078 111.416 383.038 112.882 382.687 115.042C382.335 117.201 383.805 119.236 385.97 119.587C388.135 119.937 390.175 118.471 390.527 116.311Z" fill="#FAE588"/>
<path d="M402.903 116.312C403.254 114.153 401.784 112.118 399.619 111.768C397.454 111.417 395.414 112.884 395.063 115.043C394.711 117.203 396.182 119.237 398.346 119.588C400.511 119.939 402.551 118.472 402.903 116.312Z" fill="#80ED99"/>
<path d="M420.889 129.613C411.841 129.613 402.996 132.289 395.473 137.304C387.95 142.318 382.086 149.445 378.624 157.784C375.162 166.122 374.256 175.298 376.021 184.15C377.787 193.002 382.144 201.133 388.543 207.515C394.941 213.896 403.093 218.242 411.967 220.002C420.841 221.763 430.039 220.858 438.399 217.404C446.758 213.949 453.902 208.1 458.928 200.595C463.954 193.09 466.637 184.267 466.636 175.241C466.636 169.249 465.452 163.315 463.153 157.779C460.854 152.243 457.485 147.213 453.237 142.976C448.988 138.739 443.945 135.378 438.395 133.085C432.845 130.792 426.896 129.612 420.889 129.613ZM420.889 209.329C414.13 209.329 407.523 207.329 401.904 203.584C396.284 199.838 391.904 194.515 389.318 188.286C386.731 182.057 386.055 175.204 387.373 168.591C388.692 161.979 391.946 155.905 396.725 151.138C401.505 146.371 407.593 143.124 414.222 141.809C420.851 140.494 427.722 141.169 433.966 143.749C440.21 146.329 445.547 150.698 449.302 156.304C453.057 161.909 455.061 168.5 455.061 175.241C455.061 179.718 454.177 184.15 452.46 188.286C450.743 192.422 448.226 196.179 445.052 199.345C441.879 202.51 438.112 205.021 433.966 206.734C429.82 208.447 425.376 209.329 420.889 209.329Z" fill="white"/>
<path d="M420.889 129.613C411.841 129.613 402.996 132.289 395.473 137.304C387.95 142.318 382.086 149.445 378.624 157.784C375.162 166.122 374.256 175.298 376.021 184.15C377.787 193.002 382.144 201.133 388.543 207.515C394.941 213.896 403.093 218.242 411.967 220.002C420.841 221.763 430.039 220.858 438.399 217.404C446.758 213.949 453.902 208.1 458.928 200.595C463.954 193.09 466.637 184.267 466.636 175.241C466.636 169.249 465.452 163.315 463.153 157.779C460.854 152.243 457.485 147.213 453.237 142.976C448.988 138.739 443.945 135.378 438.395 133.085C432.845 130.792 426.896 129.612 420.889 129.613ZM420.889 209.329C414.13 209.329 407.523 207.329 401.904 203.584C396.284 199.838 391.904 194.515 389.318 188.286C386.731 182.057 386.055 175.204 387.373 168.591C388.692 161.979 391.946 155.905 396.725 151.138C401.505 146.371 407.593 143.124 414.222 141.809C420.851 140.494 427.722 141.169 433.966 143.749C440.21 146.329 445.547 150.698 449.302 156.304C453.057 161.909 455.061 168.5 455.061 175.241C455.061 179.718 454.177 184.15 452.46 188.286C450.743 192.422 448.226 196.179 445.052 199.345C441.879 202.51 438.112 205.021 433.966 206.734C429.82 208.447 425.376 209.329 420.889 209.329Z" fill="#80ED99"/>
<path d="M420.889 220.874C428.209 220.879 435.423 219.13 441.924 215.773C448.424 212.416 454.021 207.551 458.243 201.586L448.688 195.07C444.478 200.945 438.506 205.333 431.634 207.604C424.762 209.875 417.344 209.91 410.451 207.704C403.558 205.498 397.545 201.166 393.279 195.332C389.014 189.497 386.716 182.463 386.717 175.241H375.142C375.142 187.344 379.962 198.951 388.541 207.509C397.12 216.066 408.756 220.874 420.889 220.874Z" fill="#F9DC5C"/>
<path d="M420.889 141.159V129.613C414.881 129.612 408.933 130.792 403.383 133.085C397.832 135.378 392.789 138.739 388.541 142.976C384.293 147.213 380.923 152.243 378.624 157.779C376.325 163.315 375.142 169.249 375.142 175.241H386.717C386.718 166.202 390.318 157.533 396.727 151.141C403.135 144.749 411.826 141.159 420.889 141.159Z" fill="#FF87AB"/>
<path d="M432.371 176.793L438.947 174.235L438.264 170.379L431.211 170.234C431.019 169.852 430.805 169.482 430.568 169.126L433.962 162.97L430.965 160.429L425.464 164.826C425.07 164.657 424.667 164.51 424.256 164.386L422.877 157.479H418.949L417.574 164.386C417.144 164.506 416.721 164.653 416.309 164.826L410.786 160.429L407.789 162.962L411.214 169.117C410.98 169.475 410.766 169.846 410.575 170.229L403.523 170.409L402.857 174.27L409.447 176.798C409.499 177.221 409.574 177.64 409.671 178.055L404.382 182.72L406.357 186.106L413.034 183.815C413.347 184.108 413.677 184.382 414.022 184.637L412.968 191.601L416.662 192.92L420.307 186.892C420.51 186.892 420.712 186.892 420.92 186.892C421.127 186.892 421.36 186.893 421.59 186.871L425.235 192.964L428.924 191.619L427.831 184.659C428.174 184.403 428.503 184.127 428.814 183.832L435.505 186.088L437.461 182.689L432.146 178.055C432.246 177.639 432.321 177.218 432.371 176.793ZM427.042 175.444C427.042 176.662 426.679 177.853 426 178.866C425.321 179.878 424.356 180.667 423.227 181.132C422.099 181.598 420.857 181.718 419.659 181.479C418.462 181.24 417.362 180.651 416.5 179.788C415.638 178.925 415.052 177.826 414.816 176.631C414.581 175.436 414.706 174.197 415.177 173.073C415.647 171.949 416.441 170.989 417.459 170.315C418.477 169.641 419.672 169.284 420.893 169.288C422.526 169.294 424.09 169.945 425.242 171.099C426.395 172.253 427.042 173.815 427.042 175.444Z" fill="#FF8FAB"/>
<path d="M329.263 0.993652H248.189C239.341 0.993652 232.167 8.14895 232.167 16.9755V47.5321C232.167 56.3586 239.341 63.5139 248.189 63.5139H329.263C338.112 63.5139 345.285 56.3586 345.285 47.5321V16.9755C345.285 8.14895 338.112 0.993652 329.263 0.993652Z" fill="#EDF2FB"/>
<path d="M268.914 12.5964H262.893C260.023 12.5964 257.696 14.9172 257.696 17.7801V46.732C257.696 49.5948 260.023 51.9156 262.893 51.9156H268.914C271.784 51.9156 274.11 49.5948 274.11 46.732V17.7801C274.11 14.9172 271.784 12.5964 268.914 12.5964Z" fill="#E9FDEB"/>
<path d="M291.829 12.5964H285.808C282.938 12.5964 280.612 14.9172 280.612 17.7801V46.732C280.612 49.5948 282.938 51.9156 285.808 51.9156H291.829C294.699 51.9156 297.026 49.5948 297.026 46.732V17.7801C297.026 14.9172 294.699 12.5964 291.829 12.5964Z" fill="#E9FDEB"/>
<path d="M314.749 12.5964H308.728C305.858 12.5964 303.531 14.9172 303.531 17.7801V46.732C303.531 49.5948 305.858 51.9156 308.728 51.9156H314.749C317.619 51.9156 319.945 49.5948 319.945 46.732V17.7801C319.945 14.9172 317.619 12.5964 314.749 12.5964Z" fill="#E9FDEB"/>
<path d="M268.914 23.5088H262.893C260.023 23.5088 257.696 25.8296 257.696 28.6924V46.7275C257.696 49.5903 260.023 51.9111 262.893 51.9111H268.914C271.784 51.9111 274.11 49.5903 274.11 46.7275V28.6924C274.11 25.8296 271.784 23.5088 268.914 23.5088Z" fill="#80ED99"/>
<path d="M291.829 35.5424H285.808C282.938 35.5424 280.612 37.8632 280.612 40.726V46.7318C280.612 49.5947 282.938 51.9155 285.808 51.9155H291.829C294.699 51.9155 297.026 49.5947 297.026 46.7318V40.726C297.026 37.8632 294.699 35.5424 291.829 35.5424Z" fill="#80ED99"/>
<path d="M314.749 26.8328H308.728C305.858 26.8328 303.531 29.1536 303.531 32.0164V46.7276C303.531 49.5904 305.858 51.9112 308.728 51.9112H314.749C317.619 51.9112 319.945 49.5904 319.945 46.7276V32.0164C319.945 29.1536 317.619 26.8328 314.749 26.8328Z" fill="#80ED99"/>
<defs>
<linearGradient id="paint0_linear_184_3602" x1="-23.989" y1="259.57" x2="324.315" y2="272.839" gradientUnits="userSpaceOnUse">
<stop stop-color="#0866CC"/>
<stop offset="1" stop-color="#2E9FF8"/>
</linearGradient>
<linearGradient id="paint1_linear_184_3602" x1="15.4443" y1="279.662" x2="30.1746" y2="279.662" gradientUnits="userSpaceOnUse">
<stop stop-color="#FF9800"/>
<stop offset="0.18" stop-color="#FE9F0A"/>
<stop offset="0.5" stop-color="#FDB325"/>
<stop offset="0.9" stop-color="#FAD350"/>
<stop offset="1" stop-color="#F9DC5C"/>
</linearGradient>
<linearGradient id="paint2_linear_184_3602" x1="301.817" y1="429.064" x2="309.859" y2="419.534" gradientUnits="userSpaceOnUse">
<stop offset="0.17" stop-color="#FEC55E"/>
<stop offset="0.52" stop-color="#FDCB5E"/>
<stop offset="0.97" stop-color="#F9DB5C"/>
<stop offset="1" stop-color="#F9DC5C"/>
</linearGradient>
<linearGradient id="paint3_linear_184_3602" x1="491.799" y1="266.318" x2="499.841" y2="256.792" gradientUnits="userSpaceOnUse">
<stop offset="0.17" stop-color="#FEC55E"/>
<stop offset="0.52" stop-color="#FDCB5E"/>
<stop offset="0.97" stop-color="#F9DB5C"/>
<stop offset="1" stop-color="#F9DC5C"/>
</linearGradient>
<linearGradient id="paint4_linear_184_3602" x1="123.42" y1="255.109" x2="169.935" y2="202.344" gradientUnits="userSpaceOnUse">
<stop stop-color="#7371FC"/>
<stop offset="0.29" stop-color="#7D74F7"/>
<stop offset="0.79" stop-color="#977AEA"/>
<stop offset="1" stop-color="#A57EE3"/>
</linearGradient>
<linearGradient id="paint5_linear_184_3602" x1="209.336" y1="258.445" x2="541.005" y2="268.607" gradientUnits="userSpaceOnUse">
<stop stop-color="#0866CC"/>
<stop offset="1" stop-color="#2E9FF8"/>
</linearGradient>
<linearGradient id="paint6_linear_184_3602" x1="237.435" y1="279.688" x2="426.791" y2="279.688" gradientUnits="userSpaceOnUse">
<stop stop-color="#FF9800"/>
<stop offset="0.18" stop-color="#FE9F0A"/>
<stop offset="0.5" stop-color="#FDB325"/>
<stop offset="0.9" stop-color="#FAD350"/>
<stop offset="1" stop-color="#F9DC5C"/>
</linearGradient>
<linearGradient id="paint7_linear_184_3602" x1="420.726" y1="314.817" x2="512.343" y2="314.817" gradientUnits="userSpaceOnUse">
<stop stop-color="#FF9800"/>
<stop offset="0.18" stop-color="#FF9C06"/>
<stop offset="0.41" stop-color="#FEA816"/>
<stop offset="0.67" stop-color="#FCBC30"/>
<stop offset="0.95" stop-color="#F9D755"/>
<stop offset="1" stop-color="#F9DC5C"/>
</linearGradient>
<linearGradient id="paint8_linear_184_3602" x1="379.726" y1="58.7348" x2="470.933" y2="1.58483" gradientUnits="userSpaceOnUse">
<stop offset="0.1" stop-color="#F686BD"/>
<stop offset="0.52" stop-color="#F888B9"/>
<stop offset="0.95" stop-color="#FE8EAD"/>
<stop offset="1" stop-color="#FF8FAB"/>
</linearGradient>
<linearGradient id="paint9_linear_184_3602" x1="158.383" y1="410.683" x2="243.331" y2="344.84" gradientUnits="userSpaceOnUse">
<stop stop-color="#F686BD"/>
<stop offset="0.47" stop-color="#F888B9"/>
<stop offset="0.94" stop-color="#FE8EAD"/>
<stop offset="1" stop-color="#FF8FAB"/>
</linearGradient>
<linearGradient id="paint10_linear_184_3602" x1="206.023" y1="140.321" x2="393.564" y2="147.536" gradientUnits="userSpaceOnUse">
<stop stop-color="#0866CC"/>
<stop offset="1" stop-color="#2E9FF8"/>
</linearGradient>
</defs>
</svg>
